<?xml version="1.0" standalone="no"?>
<!DOCTYPE svg PUBLIC "-//W3C//DTD SVG 20010904//EN"
 "http://www.w3.org/TR/2001/REC-SVG-20010904/DTD/svg10.dtd">
<svg version="1.0" xmlns="http://www.w3.org/2000/svg"
 width="750.000000pt" height="750.000000pt" viewBox="0 0 750.000000 750.000000"
 preserveAspectRatio="xMidYMid meet">

<g transform="translate(0.000000,750.000000) scale(0.100000,-0.100000)"
fill="#000000" stroke="none">
<path d="M4910 6067 c0 -52 -21 -72 -65 -61 l-25 6 0 -220 0 -221 43 -3 42 -3
3 -52 3 -53 139 0 139 0 3 -42 3 -43 88 -3 87 -3 0 -44 0 -45 -103 0 -102 0 3
45 4 45 -140 0 -140 0 6 46 5 46 -267 -5 c-147 -3 -274 -3 -282 0 -9 3 -14 20
-14 47 l0 41 -132 3 c-73 2 -136 6 -140 8 -5 3 -8 22 -8 44 l0 38 -315 1 -315
2 0 -40 c0 -22 -4 -42 -9 -45 -5 -4 -68 -7 -140 -7 l-131 -1 0 -44 0 -44 -275
0 -275 0 0 -45 0 -45 -135 0 -135 0 0 -44 c0 -24 -4 -46 -10 -48 -5 -1 -50 -2
-100 0 l-90 3 0 45 0 44 88 0 88 0 -3 45 -4 45 146 0 145 0 0 49 c0 46 2 50
30 60 17 5 37 8 45 5 8 -4 15 -1 15 6 0 6 -5 8 -12 4 -8 -5 -9 -2 -4 11 4 11
9 109 12 218 l5 200 -22 -6 c-11 -3 -32 -1 -45 5 -19 9 -24 19 -24 50 0 21 -4
38 -10 38 -5 0 -10 -3 -10 -7 0 -10 -324 -8 -339 1 -7 5 -11 -6 -11 -34 0 -49
-10 -55 -126 -63 -98 -7 -132 -19 -144 -51 -7 -19 -19 -27 -47 -31 -21 -3 -50
-13 -64 -20 -14 -8 -29 -12 -31 -9 -3 3 -16 -8 -28 -23 -12 -15 -31 -31 -43
-34 -12 -3 -21 -11 -19 -17 1 -9 -2 -9 -17 0 -18 11 -48 2 -106 -30 -5 -3 -4
2 4 12 13 15 13 19 0 26 -11 8 -15 0 -19 -37 -4 -32 -11 -49 -25 -57 -11 -6
-23 -15 -26 -19 -3 -5 -9 -8 -13 -8 -21 3 -26 -2 -26 -24 0 -18 -9 -29 -33
-41 -39 -20 -62 -43 -71 -72 -4 -12 -10 -21 -14 -21 -20 3 -52 -15 -52 -30 -1
-29 -27 -52 -71 -60 -24 -5 -39 -9 -33 -10 8 -1 8 -11 0 -35 -12 -38 -38 -51
-81 -40 l-25 6 0 -140 0 -140 -29 -7 c-15 -3 -34 -5 -42 -3 -11 2 -15 -17 -17
-89 l-3 -93 -43 0 -43 0 -2 -272 c0 -149 -3 -274 -6 -276 -2 -2 -23 -4 -47 -4
-23 1 -38 -2 -32 -6 10 -8 10 -58 -1 -236 l-8 -118 -33 -20 c-19 -11 -34 -28
-34 -38 0 -11 -5 -22 -10 -25 -6 -3 -10 -28 -10 -55 0 -44 -3 -50 -30 -63 -17
-9 -32 -11 -36 -6 -3 5 -11 9 -19 9 -11 0 -14 -41 -15 -222 0 -129 -5 -227
-10 -232 -6 -6 -26 -10 -45 -10 l-35 0 0 -223 c0 -216 -1 -223 -21 -234 -12
-6 -33 -9 -47 -6 l-25 5 6 -211 c6 -227 5 -222 62 -237 13 -4 21 -16 23 -33 2
-18 12 -32 28 -39 13 -6 24 -15 24 -20 0 -4 9 -8 20 -8 17 0 20 -7 20 -45 0
-25 5 -45 11 -45 5 0 7 5 4 10 -4 6 6 10 22 10 19 0 24 -3 15 -9 -10 -6 -5
-10 17 -14 22 -5 31 -12 31 -27 0 -11 6 -20 14 -20 7 0 19 -6 25 -14 10 -11 8
-15 -6 -19 -11 -2 -4 -7 19 -11 23 -5 38 -14 38 -23 0 -8 7 -22 16 -31 15 -15
15 -16 -2 -23 -13 -5 -5 -8 25 -10 39 -4 46 -8 54 -34 10 -31 27 -46 62 -55
14 -4 22 -17 25 -40 4 -26 10 -34 23 -32 9 2 17 -2 17 -8 0 -5 11 -10 25 -10
23 0 25 -4 25 -41 0 -37 2 -41 20 -36 11 3 26 -1 34 -8 7 -8 17 -11 21 -7 8 8
30 -26 30 -47 0 -8 14 -18 30 -23 61 -19 62 -20 40 -28 -13 -5 0 -8 38 -8 64
-1 81 -8 73 -27 -3 -8 4 -17 15 -20 10 -4 19 -10 19 -15 0 -4 15 -11 32 -14
18 -4 42 -8 53 -10 11 -3 30 -5 43 -5 16 -1 22 -7 22 -24 0 -31 46 -56 53 -29
4 16 5 16 6 0 0 -10 6 -18 12 -18 5 0 8 -4 4 -9 -3 -6 16 -10 45 -9 45 0 88
-17 76 -30 -10 -9 24 -32 53 -35 17 -2 34 -7 39 -12 4 -5 0 -5 -8 0 -9 5 -12
5 -7 -1 5 -5 32 -10 60 -11 29 0 69 -1 90 -2 35 -1 37 -3 37 -34 0 -32 1 -33
43 -32 23 1 47 -1 52 -4 6 -3 15 -6 20 -7 6 -1 23 -5 39 -9 23 -6 27 -5 21 5
-6 9 -4 11 6 5 22 -14 381 -15 398 -2 11 9 13 9 8 0 -5 -8 2 -11 23 -11 20 1
27 4 18 9 -10 7 -10 11 0 21 6 6 12 20 12 29 0 20 20 29 61 29 l29 0 0 90 0
90 51 0 c41 0 49 3 41 13 -7 8 -8 25 -3 43 7 26 12 29 54 32 31 2 45 7 41 14
-4 6 -6 46 -5 88 2 72 0 78 -16 74 -10 -3 -31 -1 -46 5 -22 9 -27 17 -27 45 0
19 6 41 13 48 11 11 175 13 880 13 476 0 869 -4 873 -8 12 -11 5 -90 -9 -99
-6 -5 -25 -7 -40 -5 l-28 4 3 -86 3 -86 38 -3 c34 -3 37 -6 38 -35 1 -18 1
-38 0 -44 -1 -9 14 -13 49 -13 l50 0 0 -91 c0 -74 3 -90 14 -86 30 12 70 -8
78 -40 6 -25 12 -30 33 -28 14 2 27 0 30 -5 2 -4 67 -8 142 -9 76 -2 184 -3
240 -4 55 -1 99 2 96 6 -3 5 5 3 17 -5 18 -10 24 -10 27 0 3 6 11 12 19 12 9
0 12 -4 9 -10 -3 -5 -1 -10 4 -10 6 0 11 15 11 34 0 47 19 58 106 61 41 2 78
5 81 9 4 3 19 6 34 6 20 0 32 9 47 34 20 35 37 40 154 46 9 1 25 19 35 40 13
30 24 40 43 41 14 1 30 2 35 4 6 1 26 3 46 3 30 2 39 7 49 32 18 43 31 51 97
54 76 4 73 3 73 24 0 19 49 72 66 72 5 0 15 10 23 22 12 20 14 20 26 5 11 -15
13 -13 18 21 7 42 56 89 74 71 7 -7 13 1 17 25 5 25 15 39 34 48 14 7 31 23
37 34 20 41 38 54 74 55 22 1 27 3 14 6 -20 4 -21 6 -8 36 14 33 35 44 95 47
21 1 29 4 20 8 -8 4 -16 21 -16 38 -2 29 1 32 35 38 20 3 48 6 64 6 28 0 36
14 15 24 -10 5 -10 7 0 12 6 3 12 17 12 30 0 20 5 24 33 25 17 1 39 0 47 -1
10 -1 9 3 -5 14 -19 15 -19 17 -2 27 9 5 17 18 17 27 0 20 60 58 60 39 0 -7 5
-5 10 4 5 9 11 111 12 226 3 196 2 210 -14 202 -11 -6 -26 -5 -42 3 -30 13
-28 -5 -26 291 0 97 -3 177 -8 177 -4 0 -13 -5 -19 -11 -8 -8 -13 -8 -17 0 -4
6 -16 11 -27 11 -18 0 -19 9 -19 230 l0 230 -50 0 -50 0 0 95 c0 84 -2 95 -17
93 -10 -1 -30 0 -45 0 l-28 2 0 186 c0 119 -4 183 -10 179 -5 -3 -25 -3 -45 1
l-35 6 0 273 0 272 -39 0 c-21 0 -44 3 -50 7 -7 5 -11 41 -11 97 0 70 -3 88
-12 82 -23 -14 -47 -13 -62 3 -13 12 -16 41 -16 145 0 79 -4 129 -10 129 -5 0
-10 -8 -11 -17 0 -17 -1 -17 -8 0 -4 10 -11 18 -16 18 -25 -2 -45 12 -45 30 0
11 -7 22 -15 25 -20 8 -19 21 3 27 9 3 4 5 -13 6 -50 2 -75 12 -75 31 0 10
-20 33 -45 51 -24 19 -45 41 -45 50 0 9 -11 21 -25 27 -14 6 -25 16 -25 21 0
5 -9 11 -20 14 -12 3 -20 14 -20 27 0 13 -8 24 -20 27 -11 3 -20 9 -20 14 0 5
-11 15 -25 21 -14 6 -25 19 -25 30 0 11 -13 23 -32 32 -30 12 -31 14 -14 22
13 5 21 3 24 -4 4 -13 22 -6 22 9 0 5 -41 9 -90 9 -87 0 -91 1 -102 25 -6 14
-15 26 -20 26 -4 1 -14 2 -20 3 -7 1 -12 7 -11 13 1 6 -9 13 -22 16 -14 2 -25
1 -25 -3 0 -4 -17 -3 -38 3 -26 7 -44 20 -56 40 -9 16 -19 27 -23 23 -3 -3
-11 -2 -17 3 -6 5 -54 12 -106 16 -106 8 -120 16 -120 73 0 24 -3 31 -12 25
-7 -4 -71 -9 -143 -10 -71 -1 -139 -4 -150 -6 -12 -2 -27 4 -37 16 -18 20 -18
19 -18 -26z m-2422 -279 l-3 -133 -87 -3 -88 -3 0 -39 c0 -22 -3 -41 -7 -41
-10 -2 -132 -6 -210 -8 l-62 -1 1 -39 c1 -53 -7 -61 -53 -61 -24 0 -39 -5 -40
-12 -1 -7 -2 -17 -4 -23 -1 -5 -3 -40 -3 -77 l-2 -68 -45 0 c-25 0 -44 -3 -44
-7 1 -5 1 -25 0 -45 l-1 -38 -45 0 -45 0 2 -187 3 -188 50 0 50 0 6 63 c3 34
9 65 12 68 9 9 27 -5 27 -22 0 -8 4 -14 10 -14 5 0 7 7 4 15 -4 8 -1 15 5 15
7 0 8 8 1 25 -9 23 -7 25 16 25 21 0 24 3 19 21 -6 19 -4 21 14 16 13 -3 28 1
38 11 9 10 18 16 20 15 9 -8 23 -2 18 7 -5 9 6 14 26 12 27 -3 190 -13 214
-13 51 -1 89 8 93 20 2 6 12 11 22 11 11 0 23 7 28 16 7 13 13 14 30 5 13 -7
23 -7 27 -1 3 5 13 6 22 3 12 -5 15 -2 10 10 -4 12 0 18 16 22 29 8 75 13 110
14 16 1 26 5 22 11 -3 6 3 10 13 10 15 0 19 5 15 20 -4 15 -1 18 16 15 12 -2
26 -7 32 -10 6 -4 13 2 16 14 6 24 -5 23 255 21 121 -1 148 2 155 14 5 9 23
16 41 18 17 1 33 5 33 8 1 3 2 23 3 44 3 46 23 60 28 20 3 -26 4 -27 20 -11 9
9 23 17 30 17 10 0 9 -3 -2 -10 -12 -8 -9 -10 12 -10 17 0 26 5 24 13 -1 6 -1
9 1 5 6 -11 83 -10 83 1 0 5 18 11 40 15 39 6 40 7 40 46 0 22 5 40 10 40 6 0
10 -8 10 -19 0 -12 9 -20 25 -23 21 -5 23 -3 14 14 -6 11 -9 21 -7 23 2 2 94
5 205 7 l201 3 -5 -45 -4 -45 144 2 144 1 -1 -46 c-1 -41 2 -47 18 -44 10 2
15 -1 12 -7 -4 -5 -2 -12 4 -16 5 -3 10 1 10 9 0 19 46 22 52 4 6 -17 25 -19
231 -25 154 -5 191 -9 204 -22 15 -15 16 -13 10 22 -3 21 -2 37 4 37 5 0 9
-22 9 -50 l0 -50 105 0 c87 0 105 -3 103 -14 -2 -8 2 -15 7 -16 6 -1 18 -6 28
-11 14 -8 17 -5 18 13 1 13 5 5 8 -17 5 -36 9 -41 41 -47 69 -13 196 -30 230
-31 19 0 38 -5 42 -11 5 -8 8 -7 8 2 0 6 8 12 18 12 15 0 15 2 2 11 -11 7 0 9
40 7 30 -2 58 -7 62 -13 5 -6 8 -5 8 3 0 6 5 12 10 12 6 0 10 -20 10 -45 l0
-45 45 0 46 0 -2 -67 c-3 -117 -5 -113 45 -113 67 0 71 4 69 58 -2 38 0 42 7
22 8 -24 8 -23 7 7 -1 17 -5 29 -9 27 -4 -3 -7 34 -6 83 1 86 1 87 8 28 6 -56
7 -54 8 35 2 87 -5 123 -22 121 -3 -1 -26 -1 -51 -1 l-45 0 1 43 c1 34 2 37 8
17 4 -15 10 -20 14 -13 12 19 -4 43 -28 43 -12 0 -37 3 -54 6 l-31 7 0 82 0
82 -50 7 -50 7 0 44 0 45 -127 1 c-71 1 -131 1 -135 0 -5 0 -8 19 -8 44 l0 45
-80 0 c-57 0 -80 4 -81 13 0 8 -2 8 -6 -2 -4 -11 -7 -11 -13 0 -5 7 -4 23 0
35 5 13 7 32 5 43 -2 11 0 23 6 26 5 4 9 15 9 26 0 10 5 19 11 19 6 0 8 8 4
19 -5 16 -2 18 14 14 11 -3 28 0 38 6 12 7 13 10 4 11 -10 0 -11 3 -2 14 9 11
5 16 -20 25 -17 6 -35 8 -40 5 -5 -3 -9 0 -9 5 0 7 29 11 75 11 l75 0 0 -45 0
-45 113 -1 c61 -1 124 0 140 1 27 1 27 1 22 -43 -4 -29 -1 -48 6 -52 6 -4 49
-7 95 -6 l84 2 0 -46 c0 -50 -6 -47 93 -47 36 0 53 -5 67 -21 11 -11 21 -17
21 -11 1 5 4 -4 8 -21 5 -27 10 -30 48 -33 l42 -3 3 -47 3 -47 42 3 42 3 3
-48 3 -48 37 3 c29 2 39 -2 48 -18 6 -11 8 -29 5 -40 -7 -21 7 -32 49 -37 16
-2 32 -6 35 -9 3 -3 4 -53 3 -112 -1 -59 0 -119 4 -134 5 -25 10 -28 49 -28
l44 0 3 -87 3 -88 48 -3 47 -3 0 -117 c0 -64 -4 -123 -8 -129 -6 -10 -557 -13
-2640 -15 l-2633 -3 3 129 c2 93 7 131 16 134 7 2 12 -5 12 -17 0 -12 4 -21 9
-21 13 0 32 26 24 33 -3 4 3 7 15 7 20 0 22 5 23 68 1 37 4 55 6 40 3 -18 10
-28 21 -27 11 0 12 3 5 6 -17 6 -17 33 0 33 8 0 22 10 33 22 10 12 13 18 7 14
-8 -4 -13 -1 -13 8 0 9 7 16 15 16 12 0 15 19 16 108 1 59 4 97 6 85 6 -29 19
-30 26 -2 3 12 10 18 16 14 7 -4 8 0 4 11 -4 11 -3 15 5 10 6 -3 13 -2 17 4 3
5 1 10 -6 10 -8 0 -8 4 1 15 13 16 11 17 -32 19 -15 1 -31 5 -35 9 -4 5 15 7
44 5 30 -2 49 -7 46 -13 -3 -5 4 1 16 15 11 14 28 25 37 25 10 0 18 9 20 23 2
12 -1 22 -6 22 -6 0 -10 5 -10 10 0 6 7 10 15 10 8 0 15 -5 15 -11 0 -8 5 -8
15 1 8 7 15 19 15 26 0 8 7 14 15 14 8 0 15 -5 15 -11 0 -5 5 -7 10 -4 14 9
13 48 -2 63 -9 9 -9 12 3 12 8 0 20 -5 26 -11 8 -8 13 -5 18 10 3 11 3 26 0
31 -4 7 2 9 20 4 14 -3 25 -2 24 2 -1 5 0 12 1 17 1 4 3 13 4 19 0 7 10 13 21
13 12 0 22 9 26 25 6 21 7 22 9 5 1 -13 3 -15 7 -6 5 11 7 11 14 0 7 -11 10
-9 15 9 7 26 24 29 25 5 0 -14 2 -13 9 5 6 15 18 22 35 22 15 0 24 4 20 10 -3
6 3 10 14 10 12 0 21 5 21 10 0 6 7 10 16 10 14 0 14 3 4 15 -11 13 -8 15 17
15 16 0 35 -6 42 -12 11 -11 13 -10 8 4 -3 10 0 19 9 22 9 3 12 10 9 16 -5 9
21 14 63 13 13 -1 15 8 12 46 -1 13 3 21 8 17 5 -3 7 5 4 19 -3 19 0 25 12 25
10 0 14 -4 11 -10 -4 -6 4 -6 22 1 15 5 50 10 78 9 127 -4 165 0 165 15 0 9
12 20 26 26 26 9 26 10 8 25 -10 9 -14 13 -7 10 6 -4 14 -2 18 4 3 5 29 10 56
10 l50 0 -3 -132z m-161 100 c-3 -8 -6 -5 -6 6 -1 11 2 17 5 13 3 -3 4 -12 1
-19z m333 -248 c0 -5 -2 -10 -4 -10 -3 0 -8 5 -11 10 -3 6 -1 10 4 10 6 0 11
-4 11 -10z m-1250 -280 c0 -5 -2 -10 -4 -10 -3 0 -8 5 -11 10 -3 6 -1 10 4 10
6 0 11 -4 11 -10z m1927 4 c-3 -3 -12 -4 -19 -1 -8 3 -5 6 6 6 11 1 17 -2 13
-5z m-1940 -66 c-3 -7 -5 -2 -5 12 0 14 2 19 5 13 2 -7 2 -19 0 -25z m3345
-31 c10 -7 9 -8 -3 -4 -9 3 -21 1 -27 -5 -6 -6 -19 -5 -38 6 l-29 15 42 -1
c23 -1 48 -5 55 -11z m-2855 -299 c-3 -8 -6 -5 -6 6 -1 11 2 17 5 13 3 -3 4
-12 1 -19z m801 -1215 c3 -42 3 -42 45 -45 l42 -3 3 -47 3 -48 44 0 44 0 3
-42 c3 -43 3 -43 45 -46 42 -3 42 -3 45 -45 3 -42 3 -42 45 -45 41 -3 42 -4
49 -48 l6 -44 44 0 44 0 0 -50 0 -50 -44 0 -45 0 -3 -42 -3 -43 -47 -3 -48 -3
0 -45 c0 -41 -2 -44 -27 -45 -45 -1 -58 -12 -61 -49 -2 -19 -7 -39 -11 -43 -4
-4 -66 -6 -137 -5 l-129 3 -3 42 c-3 42 -3 42 -45 45 l-42 3 -3 47 -3 47 -47
3 -47 3 3 43 2 42 -50 0 -50 0 2 188 3 187 45 1 c41 1 45 3 42 23 -2 13 -1 34
2 47 6 21 12 24 51 24 l45 0 0 45 0 46 93 -3 92 -3 3 -42z m2312 2 l0 -45 44
0 45 0 3 -47 3 -48 42 -3 c39 -3 43 -6 48 -35 3 -18 5 -99 3 -182 l-3 -150
-47 -3 -48 -3 0 -45 0 -44 -45 0 -45 0 0 -44 c0 -47 -9 -56 -60 -56 -27 0 -29
-3 -32 -42 l-3 -43 -140 0 -140 0 -3 43 c-3 41 -4 42 -38 42 -28 0 -36 5 -44
26 -6 14 -10 36 -10 49 0 21 -5 24 -42 27 -43 3 -43 3 -46 46 l-3 42 -45 0
-44 0 0 50 0 50 44 0 45 0 3 43 c3 42 3 42 48 47 45 5 45 5 48 48 3 42 3 42
43 42 34 0 39 3 39 23 0 55 10 67 56 67 l43 0 3 48 3 47 43 3 42 3 0 45 0 44
95 0 95 0 0 -45z m-2590 -740 l0 -45 45 0 45 0 0 -45 0 -45 230 0 230 0 0 45
0 45 44 0 45 0 3 41 3 41 695 0 695 0 3 -41 c3 -39 4 -40 45 -43 42 -3 42 -3
45 -45 l3 -43 230 0 229 0 0 45 0 45 44 0 45 0 3 39 3 39 830 4 830 3 3 -137
3 -137 47 -3 47 -3 0 -135 0 -135 -47 -3 -48 -3 0 -43 0 -44 -44 -6 c-44 -7
-45 -8 -48 -49 -3 -42 -3 -42 -45 -45 l-43 -3 0 -45 0 -44 -50 0 -50 0 0 -45
0 -45 -45 0 -45 0 0 -45 0 -45 -44 0 -45 0 -3 -47 -3 -48 -41 -3 c-44 -3 -54
-16 -54 -69 0 -22 -3 -23 -90 -23 l-90 0 0 -45 0 -45 -89 0 -90 0 -3 -47 -3
-48 -92 -3 -92 -3 -3 -42 -3 -42 -137 -3 -138 -3 0 -44 0 -45 -235 0 -235 0 0
89 0 90 -42 3 -43 3 0 95 0 95 138 3 137 3 0 38 c0 48 7 51 111 51 l79 0 0 45
0 45 68 2 c37 1 76 2 87 2 16 1 21 9 23 43 l3 42 47 3 47 3 -2 43 -1 42 43 0
44 0 3 48 3 47 48 3 47 3 0 45 0 44 45 0 45 0 0 90 0 90 -135 0 -135 0 0 -45
0 -45 -140 0 -140 0 0 -45 c0 -51 8 -47 -120 -49 l-65 -1 -3 -47 -3 -48 -90 0
-89 0 -1 -32 c-1 -18 -1 -39 0 -45 1 -10 -32 -13 -139 -13 l-140 0 0 -45 0
-45 -880 0 -880 0 0 45 0 45 -140 0 -140 0 0 45 0 44 -92 3 -93 3 -3 43 -3 42
-74 0 c-99 0 -105 3 -105 56 l0 44 -140 0 -140 0 0 45 0 45 -135 0 -135 0 0
-90 0 -90 45 0 45 0 0 -45 0 -45 44 0 45 0 3 -47 3 -48 42 -3 c42 -3 42 -3 45
-45 l3 -42 48 -3 47 -3 0 -45 0 -44 90 0 90 0 0 -51 0 -50 78 1 c120 2 112 5
112 -40 0 -38 1 -40 33 -41 17 0 79 -1 137 -2 l105 -2 3 -55 c2 -30 1 -74 -3
-97 -6 -42 -7 -43 -45 -43 l-39 0 -3 -87 -3 -88 -232 -3 -233 -2 0 45 0 44
-137 3 -138 3 -3 42 -3 42 -92 3 -92 3 -3 48 -3 47 -89 0 -89 0 -3 43 -3 42
-90 5 -90 5 -3 43 -3 42 -45 0 -44 0 0 50 0 50 -44 0 -45 0 -3 43 c-3 42 -3
42 -45 45 -42 3 -42 3 -45 45 -3 42 -3 42 -48 47 -45 5 -45 5 -48 48 -3 39 -5
42 -32 42 -49 0 -60 9 -60 50 0 38 -1 39 -45 46 l-45 6 0 44 0 44 -50 0 -50 0
0 140 0 140 50 0 50 0 0 135 0 135 728 3 c400 1 775 3 835 5 l107 2 0 -45z"/>
<path d="M2070 5792 c0 -5 7 -9 15 -9 8 0 15 4 15 9 0 4 -7 8 -15 8 -8 0 -15
-4 -15 -8z"/>
<path d="M5610 5710 c0 -5 5 -10 10 -10 6 0 10 5 10 10 0 6 -4 10 -10 10 -5 0
-10 -4 -10 -10z"/>
<path d="M5901 5524 c0 -11 3 -14 6 -6 3 7 2 16 -1 19 -3 4 -6 -2 -5 -13z"/>
<path d="M3315 5310 c3 -5 8 -10 11 -10 2 0 4 5 4 10 0 6 -5 10 -11 10 -5 0
-7 -4 -4 -10z"/>
<path d="M3188 5253 c7 -3 16 -2 19 1 4 3 -2 6 -13 5 -11 0 -14 -3 -6 -6z"/>
<path d="M4916 5153 c-6 -14 -5 -15 5 -6 7 7 10 15 7 18 -3 3 -9 -2 -12 -12z"/>
<path d="M7035 5301 c-3 -5 -1 -12 5 -16 5 -3 10 1 10 9 0 18 -6 21 -15 7z"/>
<path d="M183 4390 c0 -25 2 -35 4 -22 2 12 2 32 0 45 -2 12 -4 2 -4 -23z"/>
<path d="M560 2330 c0 -5 5 -10 10 -10 6 0 10 5 10 10 0 6 -4 10 -10 10 -5 0
-10 -4 -10 -10z"/>
<path d="M2040 1309 c0 -5 5 -7 10 -4 6 3 10 8 10 11 0 2 -4 4 -10 4 -5 0 -10
-5 -10 -11z"/>
</g>
</svg>
